<mxfile host="Electron" modified="2024-07-07T07:40:27.229Z" agent="Mozilla/5.0 (Macintosh; Intel Mac OS X 10_15_7) AppleWebKit/537.36 (KHTML, like Gecko) draw.io/24.5.3 Chrome/124.0.6367.207 Electron/30.0.6 Safari/537.36" etag="r1qphClRNWj5Pl76COdc" version="24.5.3" type="device">
  <diagram name="Page-1" id="OF927C57_zzyogkAh2Hr">
    <mxGraphModel dx="857" dy="626" grid="1" gridSize="10" guides="1" tooltips="1" connect="1" arrows="1" fold="1" page="1" pageScale="1" pageWidth="1100" pageHeight="850" math="0" shadow="0">
      <root>
        <mxCell id="0" />
        <mxCell id="1" parent="0" />
        <mxCell id="cSqzcvhj0SNxAeO5fmR9-9" value="" style="edgeStyle=orthogonalEdgeStyle;rounded=0;orthogonalLoop=1;jettySize=auto;html=1;endArrow=none;endFill=0;" edge="1" parent="1" source="cSqzcvhj0SNxAeO5fmR9-1" target="cSqzcvhj0SNxAeO5fmR9-3">
          <mxGeometry relative="1" as="geometry">
            <mxPoint x="378" y="224" as="targetPoint" />
          </mxGeometry>
        </mxCell>
        <mxCell id="cSqzcvhj0SNxAeO5fmR9-11" value="" style="edgeStyle=orthogonalEdgeStyle;rounded=0;orthogonalLoop=1;jettySize=auto;html=1;entryX=0.5;entryY=0;entryDx=0;entryDy=0;entryPerimeter=0;endArrow=none;endFill=0;" edge="1" parent="1" source="cSqzcvhj0SNxAeO5fmR9-1" target="cSqzcvhj0SNxAeO5fmR9-2">
          <mxGeometry relative="1" as="geometry">
            <mxPoint x="264" y="338" as="targetPoint" />
          </mxGeometry>
        </mxCell>
        <mxCell id="cSqzcvhj0SNxAeO5fmR9-1" value="" style="image;aspect=fixed;html=1;points=[];align=center;fontSize=12;image=img/lib/azure2/networking/Virtual_Router.svg;" vertex="1" parent="1">
          <mxGeometry x="230" y="190" width="68" height="68" as="geometry" />
        </mxCell>
        <mxCell id="cSqzcvhj0SNxAeO5fmR9-10" value="" style="edgeStyle=orthogonalEdgeStyle;rounded=0;orthogonalLoop=1;jettySize=auto;html=1;endArrow=none;endFill=0;" edge="1" parent="1" source="cSqzcvhj0SNxAeO5fmR9-2" target="cSqzcvhj0SNxAeO5fmR9-4">
          <mxGeometry relative="1" as="geometry">
            <mxPoint x="378" y="434" as="targetPoint" />
          </mxGeometry>
        </mxCell>
        <mxCell id="cSqzcvhj0SNxAeO5fmR9-2" value="" style="image;aspect=fixed;html=1;points=[];align=center;fontSize=12;image=img/lib/azure2/networking/Virtual_Router.svg;" vertex="1" parent="1">
          <mxGeometry x="230" y="400" width="68" height="68" as="geometry" />
        </mxCell>
        <mxCell id="cSqzcvhj0SNxAeO5fmR9-22" value="" style="edgeStyle=orthogonalEdgeStyle;curved=1;rounded=0;orthogonalLoop=1;jettySize=auto;html=1;endArrow=none;endFill=0;" edge="1" parent="1" source="cSqzcvhj0SNxAeO5fmR9-3" target="cSqzcvhj0SNxAeO5fmR9-7">
          <mxGeometry relative="1" as="geometry">
            <mxPoint x="648" y="224" as="targetPoint" />
          </mxGeometry>
        </mxCell>
        <mxCell id="cSqzcvhj0SNxAeO5fmR9-3" value="" style="image;aspect=fixed;html=1;points=[];align=center;fontSize=12;image=img/lib/azure2/networking/Virtual_Router.svg;" vertex="1" parent="1">
          <mxGeometry x="500" y="190" width="68" height="68" as="geometry" />
        </mxCell>
        <mxCell id="cSqzcvhj0SNxAeO5fmR9-24" value="" style="edgeStyle=none;rounded=0;orthogonalLoop=1;jettySize=auto;html=1;endArrow=none;endFill=0;" edge="1" parent="1" source="cSqzcvhj0SNxAeO5fmR9-4" target="cSqzcvhj0SNxAeO5fmR9-7">
          <mxGeometry relative="1" as="geometry">
            <mxPoint x="648" y="434" as="targetPoint" />
          </mxGeometry>
        </mxCell>
        <mxCell id="cSqzcvhj0SNxAeO5fmR9-4" value="" style="image;aspect=fixed;html=1;points=[];align=center;fontSize=12;image=img/lib/azure2/networking/Virtual_Router.svg;" vertex="1" parent="1">
          <mxGeometry x="500" y="400" width="68" height="68" as="geometry" />
        </mxCell>
        <mxCell id="cSqzcvhj0SNxAeO5fmR9-7" value="" style="image;html=1;image=img/lib/clip_art/networking/Cloud_128x128.png" vertex="1" parent="1">
          <mxGeometry x="710" y="394" width="80" height="80" as="geometry" />
        </mxCell>
        <mxCell id="cSqzcvhj0SNxAeO5fmR9-23" style="edgeStyle=orthogonalEdgeStyle;curved=1;rounded=0;orthogonalLoop=1;jettySize=auto;html=1;exitX=1;exitY=0.5;exitDx=0;exitDy=0;endArrow=none;endFill=0;" edge="1" parent="1" source="cSqzcvhj0SNxAeO5fmR9-8" target="cSqzcvhj0SNxAeO5fmR9-7">
          <mxGeometry relative="1" as="geometry">
            <Array as="points">
              <mxPoint x="760" y="620" />
            </Array>
          </mxGeometry>
        </mxCell>
        <mxCell id="cSqzcvhj0SNxAeO5fmR9-8" value="" style="image;aspect=fixed;perimeter=ellipsePerimeter;html=1;align=center;shadow=0;dashed=0;spacingTop=3;image=img/lib/active_directory/internet_cloud.svg;" vertex="1" parent="1">
          <mxGeometry x="470.5" y="580" width="126.99" height="80" as="geometry" />
        </mxCell>
        <mxCell id="cSqzcvhj0SNxAeO5fmR9-25" value="INTERNET" style="text;strokeColor=none;align=center;fillColor=none;html=1;verticalAlign=middle;whiteSpace=wrap;rounded=0;fontColor=#000000;" vertex="1" parent="1">
          <mxGeometry x="500" y="605" width="60" height="30" as="geometry" />
        </mxCell>
        <mxCell id="cSqzcvhj0SNxAeO5fmR9-26" value="IEXCNG" style="text;strokeColor=none;align=center;fillColor=none;html=1;verticalAlign=middle;whiteSpace=wrap;rounded=0;fontColor=#000000;" vertex="1" parent="1">
          <mxGeometry x="720" y="410" width="60" height="30" as="geometry" />
        </mxCell>
        <mxCell id="cSqzcvhj0SNxAeO5fmR9-27" value="DC4-Lumen-RT" style="text;strokeColor=none;align=center;fillColor=none;html=1;verticalAlign=middle;whiteSpace=wrap;rounded=0;" vertex="1" parent="1">
          <mxGeometry x="219" y="150" width="90" height="30" as="geometry" />
        </mxCell>
        <mxCell id="cSqzcvhj0SNxAeO5fmR9-28" value="DC4-VzB-RT" style="text;strokeColor=none;align=center;fillColor=none;html=1;verticalAlign=middle;whiteSpace=wrap;rounded=0;" vertex="1" parent="1">
          <mxGeometry x="219" y="468" width="90" height="30" as="geometry" />
        </mxCell>
        <mxCell id="cSqzcvhj0SNxAeO5fmR9-29" value="LUMEN-PE" style="text;strokeColor=none;align=center;fillColor=none;html=1;verticalAlign=middle;whiteSpace=wrap;rounded=0;" vertex="1" parent="1">
          <mxGeometry x="485" y="160" width="90" height="30" as="geometry" />
        </mxCell>
        <mxCell id="cSqzcvhj0SNxAeO5fmR9-30" value="VERIZON-PE" style="text;strokeColor=none;align=center;fillColor=none;html=1;verticalAlign=middle;whiteSpace=wrap;rounded=0;" vertex="1" parent="1">
          <mxGeometry x="489" y="468" width="90" height="30" as="geometry" />
        </mxCell>
      </root>
    </mxGraphModel>
  </diagram>
</mxfile>
